<?xml version="1.0" encoding="utf-8"?>
<svg xmlns="http://www.w3.org/2000/svg" width="900" height="300">
<rect width="100%" height="100%" fill="#fff"/>
<line x1="40" y1="260" x2="860" y2="260" stroke="#333"/>
<line x1="40" y1="40" x2="40" y2="260" stroke="#333"/>
<polyline fill="none" stroke="#d9534f" stroke-width="2" points="85.22,260.00 121.40,260.00 160.59,260.00 202.79,260.00 235.96,260.00 284.19,260.00 326.40,260.00 365.59,260.00 401.76,260.00 446.99,260.00 498.24,260.00 540.44,260.00 579.63,260.00 615.81,260.00 661.03,260.00 700.22,260.00 733.38,260.00 769.56,260.00 811.76,260.00 860.00,260.00"/>
<circle cx="85.22" cy="260.00" r="3" fill="#337ab7"/>
<text x="89.22" y="256.00" font-size="10" fill="#222">198m</text>
<circle cx="121.40" cy="260.00" r="3" fill="#337ab7"/>
<text x="125.40" y="256.00" font-size="10" fill="#222">198m</text>
<circle cx="160.59" cy="260.00" r="3" fill="#337ab7"/>
<text x="164.59" y="256.00" font-size="10" fill="#222">198m</text>
<circle cx="202.79" cy="260.00" r="3" fill="#337ab7"/>
<text x="206.79" y="256.00" font-size="10" fill="#222">198m</text>
<circle cx="235.96" cy="260.00" r="3" fill="#337ab7"/>
<text x="239.96" y="256.00" font-size="10" fill="#222">198m</text>
<circle cx="284.19" cy="260.00" r="3" fill="#337ab7"/>
<text x="288.19" y="256.00" font-size="10" fill="#222">198m</text>
<circle cx="326.40" cy="260.00" r="3" fill="#337ab7"/>
<text x="330.40" y="256.00" font-size="10" fill="#222">198m</text>
<circle cx="365.59" cy="260.00" r="3" fill="#337ab7"/>
<text x="369.59" y="256.00" font-size="10" fill="#222">198m</text>
<circle cx="401.76" cy="260.00" r="3" fill="#337ab7"/>
<text x="405.76" y="256.00" font-size="10" fill="#222">198m</text>
<circle cx="446.99" cy="260.00" r="3" fill="#337ab7"/>
<text x="450.99" y="256.00" font-size="10" fill="#222">198m</text>
<circle cx="498.24" cy="260.00" r="3" fill="#337ab7"/>
<text x="502.24" y="256.00" font-size="10" fill="#222">198m</text>
<circle cx="540.44" cy="260.00" r="3" fill="#337ab7"/>
<text x="544.44" y="256.00" font-size="10" fill="#222">198m</text>
<circle cx="579.63" cy="260.00" r="3" fill="#337ab7"/>
<text x="583.63" y="256.00" font-size="10" fill="#222">198m</text>
<circle cx="615.81" cy="260.00" r="3" fill="#337ab7"/>
<text x="619.81" y="256.00" font-size="10" fill="#222">198m</text>
<circle cx="661.03" cy="260.00" r="3" fill="#337ab7"/>
<text x="665.03" y="256.00" font-size="10" fill="#222">198m</text>
<circle cx="700.22" cy="260.00" r="3" fill="#337ab7"/>
<text x="704.22" y="256.00" font-size="10" fill="#222">198m</text>
<circle cx="733.38" cy="260.00" r="3" fill="#337ab7"/>
<text x="737.38" y="256.00" font-size="10" fill="#222">198m</text>
<circle cx="769.56" cy="260.00" r="3" fill="#337ab7"/>
<text x="773.56" y="256.00" font-size="10" fill="#222">198m</text>
<circle cx="811.76" cy="260.00" r="3" fill="#337ab7"/>
<text x="815.76" y="256.00" font-size="10" fill="#222">198m</text>
<circle cx="860.00" cy="260.00" r="3" fill="#337ab7"/>
<text x="864.00" y="256.00" font-size="10" fill="#222">198m</text>
</svg>